# This file uses centimeters as units for non-parametric coordinates.

mtllib cao_2.mtl
g default
v -0.049777 0.245043 -0.499583
v -0.049777 0.245043 0.500417
v -0.049777 -0.000955 -0.500417
v -0.049777 -0.000955 0.499583
v -0.499583 0.245043 -0.003252
v 0.500418 0.245043 -0.003252
v -0.500417 -0.000955 -0.003252
v 0.499583 -0.000955 -0.003252
vt 0.000000 0.549867
vt 1.000000 0.549867
vt 0.000000 1.000000
vt 1.000000 1.000000
vt 0.000000 0.549867
vt 1.000000 0.549867
vt 1.000000 1.000000
vt 0.000000 1.000000
vn 1.000000 -0.000000 0.000000
vn 1.000000 -0.000000 0.000000
vn 1.000000 -0.000000 0.000000
vn 1.000000 -0.000000 0.000000
vn 0.000000 0.000000 -1.000000
vn 0.000000 0.000000 -1.000000
vn 0.000000 0.000000 -1.000000
vn 0.000000 0.000000 -1.000000
s off
g pPlane12
usemtl initialShadingGroup
f 1/1/1 2/2/2 4/4/3 3/3/4
f 5/5/5 6/6/6 8/7/7 7/8/8
