# This file uses centimeters as units for non-parametric coordinates.

mtllib cao_1.mtl
g default
v -0.000000 0.005033 0.500000
v -0.000000 0.005033 -0.500000
v 0.000000 0.392555 0.500000
v 0.000000 0.392555 -0.500000
v -0.500000 0.005033 -0.000000
v 0.500000 0.005033 -0.000000
v -0.500000 0.392555 0.000000
v 0.500000 0.392555 0.000000
vt 0.000000 0.000000
vt 1.000000 0.000000
vt 0.000000 0.504257
vt 1.000000 0.504257
vt 0.000000 0.000000
vt 1.000000 0.000000
vt 1.000000 0.504257
vt 0.000000 0.504257
vn 1.000000 -0.000000 0.000000
vn 1.000000 -0.000000 0.000000
vn 1.000000 -0.000000 0.000000
vn 1.000000 -0.000000 0.000000
vn 0.000000 -0.000000 1.000000
vn 0.000000 -0.000000 1.000000
vn 0.000000 -0.000000 1.000000
vn 0.000000 -0.000000 1.000000
s off
g pPlane9
usemtl initialShadingGroup
f 1/1/1 2/2/2 4/4/3 3/3/4
f 5/5/5 6/6/6 8/7/7 7/8/8
