# This file uses centimeters as units for non-parametric coordinates.

mtllib leavs2.mtl
g default
v 94.792969 1.428070 -69.548431
v 58.199982 18.602539 -114.935181
v 28.941093 74.777344 -133.971710
v -4.093155 133.303665 -127.428772
v -54.742990 147.573959 -101.722290
v -108.730782 122.224167 -60.918396
v -129.439316 107.070786 -6.502411
v -104.688099 117.200363 51.644928
v -60.454626 110.778702 99.487152
v -24.775084 75.329971 133.370209
v 11.372738 24.029800 119.795807
v 63.323524 10.855560 89.889984
v 112.623871 19.647278 47.975128
v 126.534271 12.481018 -7.541107
v 98.278580 6.489868 -68.591400
v 61.407364 24.171066 -114.127716
v 32.343102 80.615417 -133.110321
v -1.162613 138.358414 -126.688202
v -51.646552 152.917862 -100.939514
v -105.689545 127.452225 -60.157562
v -126.207176 112.697556 -5.670868
v -101.270206 122.551987 52.266571
v -57.415515 116.053116 99.828278
v -21.614254 80.461319 133.971710
v 14.412125 29.390045 121.197784
v 66.381592 16.036285 90.659332
v 115.471497 24.642761 48.711395
v 129.439316 17.582214 -6.811920
v -16.054138 41.854645 -8.498871
v -11.990103 48.799286 -7.446747
v 56.065163 25.862289 -10.602692
v 44.594391 24.854858 -41.919159
v 26.820862 36.203705 -65.605438
v 9.117580 62.560654 -76.283844
v -11.774698 88.023026 -73.622162
v -38.214634 96.562424 -59.797272
v -62.197947 91.344879 -36.851898
v -72.332302 84.767654 -7.671051
v -63.734236 83.156494 22.796478
v -44.065492 76.550598 49.174469
v -20.972782 60.731216 62.908966
v 3.398766 41.755875 59.718781
v 28.776466 30.688614 43.403961
v 50.023697 28.204376 19.627167
v 46.828224 11.802856 -13.107208
v 35.614555 10.284378 -44.279816
v 18.167221 21.378677 -67.817841
v 0.445339 47.664536 -78.497437
v -20.489502 73.027481 -75.844299
v -46.903934 81.608688 -62.012054
v -70.907866 76.352356 -39.072174
v -80.992229 69.913681 -9.876495
v -72.215015 68.561111 20.655365
v -52.737582 62.423248 46.648102
v -29.680563 45.940613 59.620514
v -5.224674 26.819992 56.624054
v 20.356895 16.210129 41.227692
v 41.118126 14.028351 17.234283
v -2.910744 -152.917862 -23.997253
v -17.889196 -152.917862 -23.997253
v -25.378426 -152.917862 -11.025543
v -17.889202 -152.917862 1.946198
v -2.910748 -152.917862 1.946198
v 4.578480 -152.917862 -11.025543
v -8.226501 -101.566246 15.837494
v -12.573441 -101.566246 15.837494
v -14.746912 -101.566246 19.602020
v -12.573444 -101.566246 23.366608
v -8.226501 -101.566246 23.366608
v -6.053032 -101.566246 19.602020
v -8.226501 1.009171 15.344757
v -12.573441 1.009171 15.344757
v -14.746912 1.009171 19.109283
v -12.573444 1.009171 22.873871
v -8.226501 1.009171 22.873871
v -6.053032 1.009171 19.109283
v -5.479904 44.836578 -23.112976
v -18.968792 49.416382 -23.112976
v -26.009876 50.011505 -10.141266
v -18.968796 49.416367 2.830475
v -5.479908 44.836578 2.830475
v 0.928638 39.723267 -10.141266
v -8.226501 -40.374939 24.415436
v -12.573441 -40.374939 24.415436
v -14.746912 -40.374939 28.180023
v -12.573444 -40.374939 31.944550
v -8.226501 -40.374939 31.944550
v -6.053032 -40.374939 28.180023
vt 0.375000 0.312500
vt 0.392857 0.312500
vt 0.392857 0.688440
vt 0.375000 0.688440
vt 0.410714 0.312500
vt 0.410714 0.688440
vt 0.428571 0.312500
vt 0.428571 0.688440
vt 0.446429 0.312500
vt 0.446429 0.688440
vt 0.464286 0.312500
vt 0.464286 0.688440
vt 0.482143 0.312500
vt 0.482143 0.688440
vt 0.500000 0.312500
vt 0.500000 0.688440
vt 0.517857 0.312500
vt 0.517857 0.688440
vt 0.535714 0.312500
vt 0.535714 0.688440
vt 0.553571 0.312500
vt 0.553571 0.688440
vt 0.571428 0.312500
vt 0.571428 0.688440
vt 0.589286 0.312500
vt 0.589286 0.688440
vt 0.607143 0.312500
vt 0.607143 0.688440
vt 0.625000 0.312500
vt 0.625000 0.688440
vt 0.597420 0.034089
vt 0.640776 0.088456
vt 0.570388 0.119228
vt 0.548710 0.092044
vt 0.534769 0.003918
vt 0.517384 0.076959
vt 0.465231 0.003918
vt 0.482616 0.076959
vt 0.402580 0.034089
vt 0.451290 0.092044
vt 0.359224 0.088456
vt 0.429612 0.119228
vt 0.343750 0.156250
vt 0.421875 0.153125
vt 0.359224 0.224044
vt 0.429612 0.187022
vt 0.402580 0.278411
vt 0.451290 0.214206
vt 0.465231 0.308582
vt 0.482616 0.229291
vt 0.534769 0.308582
vt 0.517384 0.229291
vt 0.597420 0.278411
vt 0.548710 0.214206
vt 0.640776 0.224044
vt 0.570388 0.187022
vt 0.656250 0.156250
vt 0.578125 0.153125
vt 0.570388 0.874522
vt 0.548710 0.901706
vt 0.500000 0.837500
vt 0.517384 0.916791
vt 0.482616 0.916791
vt 0.451290 0.901706
vt 0.429612 0.874522
vt 0.421875 0.840625
vt 0.429612 0.806728
vt 0.451290 0.779544
vt 0.482616 0.764459
vt 0.517384 0.764459
vt 0.548710 0.779544
vt 0.570388 0.806728
vt 0.578125 0.840625
vt 0.656250 0.843750
vt 0.640776 0.911544
vt 0.597420 0.965911
vt 0.534769 0.996082
vt 0.465231 0.996082
vt 0.402580 0.965911
vt 0.359224 0.911544
vt 0.343750 0.843750
vt 0.359224 0.775956
vt 0.402580 0.721589
vt 0.465231 0.691418
vt 0.534769 0.691418
vt 0.597420 0.721589
vt 0.640776 0.775956
vt 0.500000 0.150000
vt 0.375000 0.312500
vt 0.416667 0.312500
vt 0.416667 0.688440
vt 0.375000 0.688440
vt 0.458333 0.312500
vt 0.458333 0.688440
vt 0.500000 0.312500
vt 0.500000 0.688440
vt 0.541667 0.312500
vt 0.541667 0.688440
vt 0.583333 0.312500
vt 0.583333 0.688440
vt 0.625000 0.312500
vt 0.625000 0.688440
vt 0.578125 0.979066
vt 0.421875 0.979066
vt 0.421875 0.979066
vt 0.578125 0.979066
vt 0.343750 0.843750
vt 0.343750 0.843750
vt 0.421875 0.708434
vt 0.421875 0.708434
vt 0.578125 0.708434
vt 0.578125 0.708434
vt 0.656250 0.843750
vt 0.656250 0.843750
vt 0.421875 0.979066
vt 0.578125 0.979066
vt 0.343750 0.843750
vt 0.421875 0.708434
vt 0.578125 0.708434
vt 0.656250 0.843750
vt 0.578125 0.979066
vt 0.421875 0.979066
vt 0.343750 0.843750
vt 0.421875 0.708434
vt 0.578125 0.708434
vt 0.656250 0.843750
vn 0.675687 -0.314772 -0.666608
vn 0.675687 -0.314772 -0.666608
vn 0.675687 -0.314772 -0.666608
vn 0.675687 -0.314772 -0.666608
vn -0.397332 -0.781818 -0.480508
vn -0.604990 -0.431588 -0.669118
vn 0.785046 0.510966 0.350167
vn 0.679829 0.723932 0.117284
vn -0.604990 -0.431588 -0.669118
vn -0.559608 -0.362526 -0.745261
vn 0.640822 0.578506 0.504657
vn 0.785046 0.510966 0.350167
vn -0.559608 -0.362526 -0.745261
vn -0.495500 -0.418272 -0.761268
vn 0.384042 0.696903 0.605672
vn 0.640822 0.578506 0.504657
vn -0.495500 -0.418272 -0.761268
vn -0.545017 -0.553839 -0.629459
vn 0.262518 0.824446 0.501372
vn 0.384042 0.696903 0.605672
vn -0.545017 -0.553839 -0.629459
vn -0.731567 -0.680975 -0.032898
vn 0.329494 0.941966 0.064296
vn 0.262518 0.824446 0.501372
vn -0.731567 -0.680975 -0.032898
vn -0.700808 -0.576729 0.419823
vn 0.450932 0.856584 -0.250848
vn 0.329494 0.941966 0.064296
vn -0.700808 -0.576729 0.419823
vn -0.735814 -0.507281 0.448602
vn 0.626068 0.752215 -0.205455
vn 0.450932 0.856584 -0.250848
vn -0.735814 -0.507281 0.448602
vn -0.714527 -0.571616 0.403368
vn 0.727045 0.685645 -0.035994
vn 0.626068 0.752215 -0.205455
vn -0.714527 -0.571616 0.403368
vn -0.491798 -0.831081 0.259691
vn 0.628152 0.766047 0.136370
vn 0.727045 0.685645 -0.035994
vn -0.491798 -0.831081 0.259691
vn -0.032403 -0.996077 0.082345
vn 0.273986 0.933534 0.231185
vn 0.628152 0.766047 0.136370
vn -0.032403 -0.996077 0.082345
vn 0.122390 -0.987187 0.102388
vn 0.175559 0.981684 0.074001
vn 0.273986 0.933534 0.231185
vn 0.122390 -0.987187 0.102388
vn 0.106734 -0.988630 0.105918
vn 0.242785 0.959744 -0.141234
vn 0.175559 0.981684 0.074001
vn 0.106734 -0.988630 0.105918
vn -0.035811 -0.998330 -0.045339
vn 0.381832 0.910401 -0.159296
vn 0.242785 0.959744 -0.141234
vn -0.397332 -0.781818 -0.480508
vn -0.035811 -0.998330 -0.045339
vn -0.216418 -0.976255 0.009417
vn -0.519260 -0.784955 -0.337956
vn -0.604990 -0.431588 -0.669118
vn -0.397332 -0.781818 -0.480508
vn -0.519260 -0.784955 -0.337956
vn -0.693829 -0.508748 -0.509683
vn -0.559608 -0.362526 -0.745261
vn -0.604990 -0.431588 -0.669118
vn -0.693829 -0.508748 -0.509683
vn -0.623631 -0.494942 -0.605076
vn -0.495500 -0.418272 -0.761268
vn -0.559608 -0.362526 -0.745261
vn -0.623631 -0.494942 -0.605076
vn -0.432235 -0.595856 -0.676852
vn -0.545017 -0.553839 -0.629459
vn -0.495500 -0.418272 -0.761268
vn -0.432235 -0.595856 -0.676852
vn -0.456339 -0.697864 -0.552033
vn -0.731567 -0.680975 -0.032898
vn -0.545017 -0.553839 -0.629459
vn -0.456339 -0.697864 -0.552033
vn -0.596306 -0.800439 -0.060968
vn -0.700808 -0.576729 0.419823
vn -0.731567 -0.680975 -0.032898
vn -0.596306 -0.800439 -0.060968
vn -0.589920 -0.744334 0.312988
vn -0.735814 -0.507281 0.448602
vn -0.700808 -0.576729 0.419823
vn -0.589920 -0.744334 0.312988
vn -0.667405 -0.671664 0.321618
vn -0.714527 -0.571616 0.403368
vn -0.735814 -0.507281 0.448602
vn -0.667405 -0.671664 0.321618
vn -0.717975 -0.659471 0.222732
vn -0.491798 -0.831081 0.259691
vn -0.714527 -0.571616 0.403368
vn -0.717975 -0.659471 0.222732
vn -0.516225 -0.849832 0.106293
vn -0.032403 -0.996077 0.082345
vn -0.491798 -0.831081 0.259691
vn -0.516225 -0.849832 0.106293
vn -0.167661 -0.985231 -0.034772
vn 0.122390 -0.987187 0.102388
vn -0.032403 -0.996077 0.082345
vn -0.167661 -0.985231 -0.034772
vn -0.050172 -0.998738 0.002435
vn 0.106734 -0.988630 0.105918
vn 0.122390 -0.987187 0.102388
vn -0.050172 -0.998738 0.002435
vn -0.090046 -0.987741 0.127512
vn -0.035811 -0.998330 -0.045339
vn 0.106734 -0.988630 0.105918
vn -0.090046 -0.987741 0.127512
vn -0.216418 -0.976255 0.009417
vn 0.298398 0.952654 -0.058381
vn 0.586604 0.766235 0.262258
vn 0.499406 0.856310 0.131633
vn 0.586604 0.766235 0.262258
vn 0.733798 0.520726 0.436331
vn 0.499406 0.856310 0.131633
vn 0.733798 0.520726 0.436331
vn 0.638538 0.545288 0.543074
vn 0.499406 0.856310 0.131633
vn 0.638538 0.545288 0.543074
vn 0.401050 0.660301 0.634950
vn 0.499406 0.856310 0.131633
vn 0.401050 0.660301 0.634950
vn 0.384678 0.757222 0.527861
vn 0.499406 0.856310 0.131633
vn 0.384678 0.757222 0.527861
vn 0.508168 0.858472 0.069219
vn 0.499406 0.856310 0.131633
vn 0.508168 0.858472 0.069219
vn 0.533844 0.800493 -0.272438
vn 0.499406 0.856310 0.131633
vn 0.533844 0.800493 -0.272438
vn 0.634244 0.728344 -0.259326
vn 0.499406 0.856310 0.131633
vn 0.634244 0.728344 -0.259326
vn 0.717050 0.682582 -0.141140
vn 0.499406 0.856310 0.131633
vn 0.717050 0.682582 -0.141140
vn 0.552127 0.833664 -0.012653
vn 0.499406 0.856310 0.131633
vn 0.552127 0.833664 -0.012653
vn 0.229816 0.967175 0.108428
vn 0.499406 0.856310 0.131633
vn 0.229816 0.967175 0.108428
vn 0.124312 0.991379 0.041394
vn 0.499406 0.856310 0.131633
vn 0.124312 0.991379 0.041394
vn 0.173349 0.975535 -0.135210
vn 0.499406 0.856310 0.131633
vn 0.173349 0.975535 -0.135210
vn 0.298398 0.952654 -0.058381
vn 0.499406 0.856310 0.131633
vn 0.242785 0.959744 -0.141234
vn 0.381832 0.910401 -0.159296
vn 0.298398 0.952654 -0.058381
vn 0.173349 0.975535 -0.135210
vn 0.381832 0.910401 -0.159296
vn 0.679829 0.723932 0.117284
vn 0.586604 0.766235 0.262258
vn 0.298398 0.952654 -0.058381
vn 0.679829 0.723932 0.117284
vn 0.785046 0.510966 0.350167
vn 0.733798 0.520726 0.436331
vn 0.586604 0.766235 0.262258
vn 0.785046 0.510966 0.350167
vn 0.640822 0.578506 0.504657
vn 0.638538 0.545288 0.543074
vn 0.733798 0.520726 0.436331
vn 0.640822 0.578506 0.504657
vn 0.384042 0.696903 0.605672
vn 0.401050 0.660301 0.634950
vn 0.638538 0.545288 0.543074
vn 0.384042 0.696903 0.605672
vn 0.262518 0.824446 0.501372
vn 0.384678 0.757222 0.527861
vn 0.401050 0.660301 0.634950
vn 0.262518 0.824446 0.501372
vn 0.329494 0.941966 0.064296
vn 0.508168 0.858472 0.069219
vn 0.384678 0.757222 0.527861
vn 0.329494 0.941966 0.064296
vn 0.450932 0.856584 -0.250848
vn 0.533844 0.800493 -0.272438
vn 0.508168 0.858472 0.069219
vn 0.450932 0.856584 -0.250848
vn 0.626068 0.752215 -0.205455
vn 0.634244 0.728344 -0.259326
vn 0.533844 0.800493 -0.272438
vn 0.626068 0.752215 -0.205455
vn 0.727045 0.685645 -0.035994
vn 0.717050 0.682582 -0.141140
vn 0.634244 0.728344 -0.259326
vn 0.727045 0.685645 -0.035994
vn 0.628152 0.766047 0.136370
vn 0.552127 0.833664 -0.012653
vn 0.717050 0.682582 -0.141140
vn 0.628152 0.766047 0.136370
vn 0.273986 0.933534 0.231185
vn 0.229816 0.967175 0.108428
vn 0.552127 0.833664 -0.012653
vn 0.273986 0.933534 0.231185
vn 0.175559 0.981684 0.074001
vn 0.124312 0.991379 0.041394
vn 0.229816 0.967175 0.108428
vn 0.175559 0.981684 0.074001
vn 0.242785 0.959744 -0.141234
vn 0.173349 0.975535 -0.135210
vn 0.124312 0.991379 0.041394
vn -0.216418 -0.976255 0.009417
vn -0.090046 -0.987741 0.127512
vn -0.498696 -0.856699 -0.131794
vn -0.519260 -0.784955 -0.337956
vn -0.216418 -0.976255 0.009417
vn -0.498696 -0.856699 -0.131794
vn -0.693829 -0.508748 -0.509683
vn -0.519260 -0.784955 -0.337956
vn -0.498696 -0.856699 -0.131794
vn -0.623631 -0.494942 -0.605076
vn -0.693829 -0.508748 -0.509683
vn -0.498696 -0.856699 -0.131794
vn -0.432235 -0.595856 -0.676852
vn -0.623631 -0.494942 -0.605076
vn -0.498696 -0.856699 -0.131794
vn -0.456339 -0.697864 -0.552033
vn -0.432235 -0.595856 -0.676852
vn -0.498696 -0.856699 -0.131794
vn -0.596306 -0.800439 -0.060968
vn -0.456339 -0.697864 -0.552033
vn -0.498696 -0.856699 -0.131794
vn -0.589920 -0.744334 0.312988
vn -0.596306 -0.800439 -0.060968
vn -0.498696 -0.856699 -0.131794
vn -0.667405 -0.671664 0.321618
vn -0.589920 -0.744334 0.312988
vn -0.498696 -0.856699 -0.131794
vn -0.717975 -0.659471 0.222732
vn -0.667405 -0.671664 0.321618
vn -0.498696 -0.856699 -0.131794
vn -0.516225 -0.849832 0.106293
vn -0.717975 -0.659471 0.222732
vn -0.498696 -0.856699 -0.131794
vn -0.167661 -0.985231 -0.034772
vn -0.516225 -0.849832 0.106293
vn -0.498696 -0.856699 -0.131794
vn -0.050172 -0.998738 0.002435
vn -0.167661 -0.985231 -0.034772
vn -0.498696 -0.856699 -0.131794
vn -0.090046 -0.987741 0.127512
vn -0.050172 -0.998738 0.002435
vn -0.498696 -0.856699 -0.131794
vn 0.331386 0.599474 -0.728570
vn -0.331386 0.599474 -0.728570
vn -0.471912 0.466686 -0.748000
vn 0.471912 0.466686 -0.748000
vn -0.331386 0.599474 -0.728570
vn -0.940800 0.294682 -0.167504
vn -0.993065 0.076819 0.089004
vn -0.471912 0.466686 -0.748000
vn -0.940800 0.294682 -0.167504
vn -0.546953 -0.273437 0.791249
vn -0.439613 -0.247232 0.863491
vn -0.993065 0.076819 0.089004
vn -0.546953 -0.273437 0.791249
vn 0.546953 -0.273437 0.791249
vn 0.439613 -0.247232 0.863491
vn -0.439613 -0.247232 0.863491
vn 0.546953 -0.273437 0.791249
vn 0.940800 0.294682 -0.167504
vn 0.993064 0.076818 0.089005
vn 0.439613 -0.247232 0.863491
vn 0.940800 0.294682 -0.167504
vn 0.331386 0.599474 -0.728570
vn 0.471912 0.466686 -0.748000
vn 0.993064 0.076818 0.089005
vn 0.522190 -0.005098 -0.852814
vn -0.522190 -0.005098 -0.852814
vn -0.538794 -0.499513 -0.678371
vn 0.329234 -0.545931 -0.770431
vn -0.522190 -0.005098 -0.852814
vn -0.998538 0.002354 0.054001
vn -0.989996 -0.109123 0.089444
vn -0.538794 -0.499513 -0.678371
vn -0.998538 0.002354 0.054001
vn -0.475237 0.003127 0.879852
vn -0.414609 0.277895 0.866530
vn -0.989996 -0.109123 0.089444
vn -0.475237 0.003127 0.879852
vn 0.475237 0.003127 0.879852
vn 0.507557 0.284572 0.813268
vn -0.414609 0.277895 0.866530
vn 0.475237 0.003127 0.879852
vn 0.998538 0.002354 0.054002
vn 0.993829 -0.041852 0.102726
vn 0.507557 0.284572 0.813268
vn 0.998538 0.002354 0.054002
vn 0.522190 -0.005098 -0.852814
vn 0.329234 -0.545931 -0.770431
vn 0.993829 -0.041852 0.102726
vn 0.329234 -0.545931 -0.770431
vn -0.538794 -0.499513 -0.678371
vn -0.492283 -0.584468 -0.645023
vn 0.014407 -0.653326 -0.756940
vn -0.538794 -0.499513 -0.678371
vn -0.989996 -0.109123 0.089444
vn -0.935028 -0.314937 -0.162904
vn -0.492283 -0.584468 -0.645023
vn -0.989996 -0.109123 0.089444
vn -0.414609 0.277895 0.866530
vn -0.618151 0.234118 0.750385
vn -0.935028 -0.314937 -0.162904
vn -0.414609 0.277895 0.866530
vn 0.507557 0.284572 0.813268
vn 0.553851 0.316266 0.770211
vn -0.618151 0.234118 0.750385
vn 0.507557 0.284572 0.813268
vn 0.993829 -0.041852 0.102726
vn 0.939221 -0.296813 -0.172530
vn 0.553851 0.316266 0.770211
vn 0.993829 -0.041852 0.102726
vn 0.329234 -0.545931 -0.770431
vn 0.014407 -0.653326 -0.756940
vn 0.939221 -0.296813 -0.172530
vn 0.471912 0.466686 -0.748000
vn -0.471912 0.466686 -0.748000
vn -0.522190 -0.005098 -0.852814
vn 0.522190 -0.005098 -0.852814
vn -0.471912 0.466686 -0.748000
vn -0.993065 0.076819 0.089004
vn -0.998538 0.002354 0.054001
vn -0.522190 -0.005098 -0.852814
vn -0.993065 0.076819 0.089004
vn -0.439613 -0.247232 0.863491
vn -0.475237 0.003127 0.879852
vn -0.998538 0.002354 0.054001
vn -0.439613 -0.247232 0.863491
vn 0.439613 -0.247232 0.863491
vn 0.475237 0.003127 0.879852
vn -0.475237 0.003127 0.879852
vn 0.439613 -0.247232 0.863491
vn 0.993064 0.076818 0.089005
vn 0.998538 0.002354 0.054002
vn 0.475237 0.003127 0.879852
vn 0.993064 0.076818 0.089005
vn 0.471912 0.466686 -0.748000
vn 0.522190 -0.005098 -0.852814
vn 0.998538 0.002354 0.054002
s off
g leavs:pCylinder45
usemtl initialShadingGroup
f 1/1/1 2/2/2 16/3/3 15/4/4
f 2/2/5 3/5/6 17/6/7 16/3/8
f 3/5/9 4/7/10 18/8/11 17/6/12
f 4/7/13 5/9/14 19/10/15 18/8/16
f 5/9/17 6/11/18 20/12/19 19/10/20
f 6/11/21 7/13/22 21/14/23 20/12/24
f 7/13/25 8/15/26 22/16/27 21/14/28
f 8/15/29 9/17/30 23/18/31 22/16/32
f 9/17/33 10/19/34 24/20/35 23/18/36
f 10/19/37 11/21/38 25/22/39 24/20/40
f 11/21/41 12/23/42 26/24/43 25/22/44
f 12/23/45 13/25/46 27/26/47 26/24/48
f 13/25/49 14/27/50 28/28/51 27/26/52
f 14/27/53 1/29/54 15/30/55 28/28/56
f 2/31/57 1/32/58 46/33/59 47/34/60
f 3/35/61 2/31/62 47/34/63 48/36/64
f 4/37/65 3/35/66 48/36/67 49/38/68
f 5/39/69 4/37/70 49/38/71 50/40/72
f 6/41/73 5/39/74 50/40/75 51/42/76
f 7/43/77 6/41/78 51/42/79 52/44/80
f 8/45/81 7/43/82 52/44/83 53/46/84
f 9/47/85 8/45/86 53/46/87 54/48/88
f 10/49/89 9/47/90 54/48/91 55/50/92
f 11/51/93 10/49/94 55/50/95 56/52/96
f 12/53/97 11/51/98 56/52/99 57/54/100
f 13/55/101 12/53/102 57/54/103 58/56/104
f 14/57/105 13/55/106 58/56/107 45/58/108
f 1/32/109 14/57/110 45/58/111 46/33/112
f 32/59/113 33/60/114 30/61/115
f 33/60/116 34/62/117 30/61/118
f 34/62/119 35/63/120 30/61/121
f 35/63/122 36/64/123 30/61/124
f 36/64/125 37/65/126 30/61/127
f 37/65/128 38/66/129 30/61/130
f 38/66/131 39/67/132 30/61/133
f 39/67/134 40/68/135 30/61/136
f 40/68/137 41/69/138 30/61/139
f 41/69/140 42/70/141 30/61/142
f 42/70/143 43/71/144 30/61/145
f 43/71/146 44/72/147 30/61/148
f 44/72/149 31/73/150 30/61/151
f 31/73/152 32/59/153 30/61/154
f 28/74/155 15/75/156 32/59/157 31/73/158
f 15/75/159 16/76/160 33/60/161 32/59/162
f 16/76/163 17/77/164 34/62/165 33/60/166
f 17/77/167 18/78/168 35/63/169 34/62/170
f 18/78/171 19/79/172 36/64/173 35/63/174
f 19/79/175 20/80/176 37/65/177 36/64/178
f 20/80/179 21/81/180 38/66/181 37/65/182
f 21/81/183 22/82/184 39/67/185 38/66/186
f 22/82/187 23/83/188 40/68/189 39/67/190
f 23/83/191 24/84/192 41/69/193 40/68/194
f 24/84/195 25/85/196 42/70/197 41/69/198
f 25/85/199 26/86/200 43/71/201 42/70/202
f 26/86/203 27/87/204 44/72/205 43/71/206
f 27/87/207 28/74/208 31/73/209 44/72/210
f 46/33/211 45/58/212 29/88/213
f 47/34/214 46/33/215 29/88/216
f 48/36/217 47/34/218 29/88/219
f 49/38/220 48/36/221 29/88/222
f 50/40/223 49/38/224 29/88/225
f 51/42/226 50/40/227 29/88/228
f 52/44/229 51/42/230 29/88/231
f 53/46/232 52/44/233 29/88/234
f 54/48/235 53/46/236 29/88/237
f 55/50/238 54/48/239 29/88/240
f 56/52/241 55/50/242 29/88/243
f 57/54/244 56/52/245 29/88/246
f 58/56/247 57/54/248 29/88/249
f 45/58/250 58/56/251 29/88/252
f 59/89/253 60/90/254 66/91/255 65/92/256
f 60/90/257 61/93/258 67/94/259 66/91/260
f 61/93/261 62/95/262 68/96/263 67/94/264
f 62/95/265 63/97/266 69/98/267 68/96/268
f 63/97/269 64/99/270 70/100/271 69/98/272
f 64/99/273 59/101/274 65/102/275 70/100/276
f 83/103/277 84/104/278 72/105/279 71/106/280
f 84/104/281 85/107/282 73/108/283 72/105/284
f 85/107/285 86/109/286 74/110/287 73/108/288
f 86/109/289 87/111/290 75/112/291 74/110/292
f 87/111/293 88/113/294 76/114/295 75/112/296
f 88/113/297 83/103/298 71/106/299 76/114/300
f 71/106/301 72/105/302 78/115/303 77/116/304
f 72/105/305 73/108/306 79/117/307 78/115/308
f 73/108/309 74/110/310 80/118/311 79/117/312
f 74/110/313 75/112/314 81/119/315 80/118/316
f 75/112/317 76/114/318 82/120/319 81/119/320
f 76/114/321 71/106/322 77/116/323 82/120/324
f 65/121/325 66/122/326 84/104/327 83/103/328
f 66/122/329 67/123/330 85/107/331 84/104/332
f 67/123/333 68/124/334 86/109/335 85/107/336
f 68/124/337 69/125/338 87/111/339 86/109/340
f 69/125/341 70/126/342 88/113/343 87/111/344
f 70/126/345 65/121/346 83/103/347 88/113/348
