# This file uses centimeters as units for non-parametric coordinates.

mtllib leavs.mtl
g default
v 105.153320 83.063782 -65.525681
v 63.548035 66.102539 -109.050491
v 26.844177 87.950821 -131.092728
v -10.828003 103.260986 -122.072968
v -77.696228 128.895966 -88.502533
v -134.228577 97.834793 -65.087723
v -114.820801 97.567719 -1.598953
v -107.345337 127.872070 62.727646
v -81.600525 115.701569 110.186417
v -23.684387 113.480347 131.092728
v 20.262451 128.050262 130.395065
v 69.129211 131.833435 100.644424
v 116.903259 68.728958 59.844681
v 131.415649 70.056076 1.508957
v 108.602905 87.343689 -64.658493
v 67.013000 72.208527 -108.523361
v 30.248413 91.290344 -129.725983
v -7.876160 108.727264 -121.322510
v -72.920898 133.987457 -87.494308
v -130.860046 103.039307 -64.233261
v -113.632263 101.706192 -0.752213
v -105.343018 133.961884 63.783524
v -77.502075 121.978210 110.620804
v -22.103638 122.201721 131.071823
v 17.816101 130.053772 122.719315
v 71.855591 139.374084 100.810959
v 119.585938 75.636734 60.102402
v 134.228577 74.326660 2.008377
v -13.158203 56.902542 -2.404343
v -9.967529 61.566284 2.787216
v 64.737732 48.509644 11.659958
v 47.596924 44.239197 -27.639084
v 24.479736 45.321518 -59.100113
v 6.883423 61.615967 -75.258316
v -12.898987 71.410416 -71.300888
v -41.822388 69.625320 -57.933426
v -72.409485 74.929077 -37.059402
v -73.467590 79.566513 -7.701340
v -66.694763 85.460419 30.630264
v -57.210999 77.037704 58.271042
v -27.341858 69.661057 71.421524
v 6.214966 80.292160 73.051834
v 35.819641 80.651062 61.413467
v 58.486633 62.595886 43.964706
v 50.498230 33.831757 1.751755
v 34.336304 35.180130 -34.174698
v 15.838928 34.491501 -61.447708
v -2.297791 50.622330 -77.410141
v -20.824707 64.675934 -74.548813
v -48.768127 60.350754 -60.852066
v -76.636963 64.171631 -39.506699
v -77.166077 68.445419 -9.476151
v -72.705200 75.327087 23.211807
v -63.483215 67.499222 51.032211
v -35.851685 56.934143 59.731430
v -3.452576 49.002609 54.997025
v 24.238647 46.634140 41.051010
v 47.484741 38.917191 30.500687
v 0.095154 -139.374084 -35.643631
v -14.883301 -139.374084 -35.643631
v -22.372559 -139.374084 -24.146774
v -14.883301 -139.374084 -12.564987
v 0.095154 -139.374084 -12.564987
v 7.584351 -139.374084 -24.146774
v -7.872070 -88.022469 -40.358871
v -11.817688 -88.022469 -40.358871
v -13.730774 -88.022469 -36.887527
v -11.591064 -88.022469 -33.296188
v -7.735535 -88.022469 -33.296188
v -5.857971 -88.022469 -36.887527
v -3.044373 28.731323 -10.903732
v -6.540466 27.969757 -11.006638
v -8.255005 26.878296 -7.760574
v -6.449036 26.612274 -4.275986
v -2.805542 27.182144 -4.110886
v -1.143616 28.257477 -7.499619
v -3.057434 57.775452 -16.066025
v -14.062744 58.562332 -15.170547
v -21.919922 59.558350 -0.943466
v -18.452637 60.943390 11.948532
v -4.580566 60.588165 12.259811
v 2.586792 57.949295 -2.708420
v 4.459961 -17.315201 -34.380753
v 0.113037 -18.148285 -34.380753
v -2.060425 -18.822151 -31.484360
v 0.113037 -18.639908 -28.528580
v 4.459961 -17.885826 -28.528580
v 6.633423 -17.226425 -31.484360
vt 0.375000 0.312500
vt 0.392857 0.312500
vt 0.392857 0.688440
vt 0.375000 0.688440
vt 0.410714 0.312500
vt 0.410714 0.688440
vt 0.428571 0.312500
vt 0.428571 0.688440
vt 0.446429 0.312500
vt 0.446429 0.688440
vt 0.464286 0.312500
vt 0.464286 0.688440
vt 0.482143 0.312500
vt 0.482143 0.688440
vt 0.500000 0.312500
vt 0.500000 0.688440
vt 0.517857 0.312500
vt 0.517857 0.688440
vt 0.535714 0.312500
vt 0.535714 0.688440
vt 0.553571 0.312500
vt 0.553571 0.688440
vt 0.571428 0.312500
vt 0.571428 0.688440
vt 0.589286 0.312500
vt 0.589286 0.688440
vt 0.607143 0.312500
vt 0.607143 0.688440
vt 0.625000 0.312500
vt 0.625000 0.688440
vt 0.597420 0.034089
vt 0.640776 0.088456
vt 0.570388 0.119228
vt 0.548710 0.092044
vt 0.534769 0.003918
vt 0.517384 0.076959
vt 0.465231 0.003918
vt 0.482616 0.076959
vt 0.402580 0.034089
vt 0.451290 0.092044
vt 0.359224 0.088456
vt 0.429612 0.119228
vt 0.343750 0.156250
vt 0.421875 0.153125
vt 0.359224 0.224044
vt 0.429612 0.187022
vt 0.402580 0.278411
vt 0.451290 0.214206
vt 0.465231 0.308582
vt 0.482616 0.229291
vt 0.534769 0.308582
vt 0.517384 0.229291
vt 0.597420 0.278411
vt 0.548710 0.214206
vt 0.640776 0.224044
vt 0.570388 0.187022
vt 0.656250 0.156250
vt 0.578125 0.153125
vt 0.570388 0.874522
vt 0.548710 0.901706
vt 0.500000 0.837500
vt 0.517384 0.916791
vt 0.482616 0.916791
vt 0.451290 0.901706
vt 0.429612 0.874522
vt 0.421875 0.840625
vt 0.429612 0.806728
vt 0.451290 0.779544
vt 0.482616 0.764459
vt 0.517384 0.764459
vt 0.548710 0.779544
vt 0.570388 0.806728
vt 0.578125 0.840625
vt 0.656250 0.843750
vt 0.640776 0.911544
vt 0.597420 0.965911
vt 0.534769 0.996082
vt 0.465231 0.996082
vt 0.402580 0.965911
vt 0.359224 0.911544
vt 0.343750 0.843750
vt 0.359224 0.775956
vt 0.402580 0.721589
vt 0.465231 0.691418
vt 0.534769 0.691418
vt 0.597420 0.721589
vt 0.640776 0.775956
vt 0.500000 0.150000
vt 0.375000 0.312500
vt 0.416667 0.312500
vt 0.416667 0.688440
vt 0.375000 0.688440
vt 0.458333 0.312500
vt 0.458333 0.688440
vt 0.500000 0.312500
vt 0.500000 0.688440
vt 0.541667 0.312500
vt 0.541667 0.688440
vt 0.583333 0.312500
vt 0.583333 0.688440
vt 0.625000 0.312500
vt 0.625000 0.688440
vt 0.578125 0.979066
vt 0.421875 0.979066
vt 0.421875 0.979066
vt 0.578125 0.979066
vt 0.343750 0.843750
vt 0.343750 0.843750
vt 0.421875 0.708434
vt 0.421875 0.708434
vt 0.578125 0.708434
vt 0.578125 0.708434
vt 0.656250 0.843750
vt 0.656250 0.843750
vt 0.421875 0.979066
vt 0.578125 0.979066
vt 0.343750 0.843750
vt 0.421875 0.708434
vt 0.578125 0.708434
vt 0.656250 0.843750
vt 0.578125 0.979066
vt 0.421875 0.979066
vt 0.343750 0.843750
vt 0.421875 0.708434
vt 0.578125 0.708434
vt 0.656250 0.843750
vn 0.472272 -0.837282 -0.275532
vn 0.274303 -0.868008 -0.413909
vn -0.148313 0.941499 0.302626
vn -0.366276 0.910010 0.194225
vn 0.274303 -0.868008 -0.413909
vn -0.230404 -0.666364 -0.709135
vn 0.348466 0.819703 0.454596
vn -0.148313 0.941499 0.302626
vn -0.230404 -0.666364 -0.709135
vn -0.461302 -0.496090 -0.735592
vn 0.452142 0.736103 0.503706
vn 0.348466 0.819703 0.454596
vn -0.461302 -0.496090 -0.735592
vn -0.373827 -0.475770 -0.796176
vn 0.288455 0.721029 0.630009
vn 0.452142 0.736103 0.503706
vn -0.373827 -0.475770 -0.796176
vn -0.475023 -0.722952 -0.501691
vn 0.161520 0.887979 0.430587
vn 0.288455 0.721029 0.630009
vn -0.475023 -0.722952 -0.501691
vn -0.649071 -0.712815 0.265711
vn 0.388557 0.887723 -0.246922
vn 0.161520 0.887979 0.430587
vn -0.649071 -0.712815 0.265711
vn -0.806229 -0.532212 0.258351
vn 0.585270 0.780875 -0.218386
vn 0.388557 0.887723 -0.246922
vn -0.806229 -0.532212 0.258351
vn -0.547879 -0.657265 0.517524
vn 0.444128 0.827960 -0.342392
vn 0.585270 0.780875 -0.218386
vn -0.547879 -0.657265 0.517524
vn -0.075555 -0.709687 0.700454
vn -0.009594 0.838747 -0.544436
vn 0.444128 0.827960 -0.342392
vn -0.075555 -0.709687 0.700454
vn 0.282376 -0.659023 0.697103
vn -0.285180 0.772785 -0.566989
vn -0.009594 0.838747 -0.544436
vn 0.282376 -0.659023 0.697103
vn 0.256524 -0.588239 0.766923
vn -0.116518 0.711424 -0.693037
vn -0.285180 0.772785 -0.566989
vn 0.256524 -0.588239 0.766923
vn 0.208391 -0.779017 0.591359
vn -0.011763 0.867031 -0.498115
vn -0.116518 0.711424 -0.693037
vn 0.208391 -0.779017 0.591359
vn 0.460841 -0.879572 -0.118228
vn -0.281292 0.958038 0.055115
vn -0.011763 0.867031 -0.498115
vn 0.460841 -0.879572 -0.118228
vn 0.472272 -0.837282 -0.275532
vn -0.366276 0.910010 0.194225
vn -0.281292 0.958038 0.055115
vn 0.274303 -0.868008 -0.413909
vn 0.472272 -0.837282 -0.275532
vn 0.316722 -0.932365 -0.174305
vn 0.110636 -0.951039 -0.288590
vn -0.230404 -0.666364 -0.709135
vn 0.274303 -0.868008 -0.413909
vn 0.110636 -0.951039 -0.288590
vn -0.342590 -0.771618 -0.535945
vn -0.461302 -0.496090 -0.735592
vn -0.230404 -0.666364 -0.709135
vn -0.342590 -0.771618 -0.535945
vn -0.448950 -0.673033 -0.587767
vn -0.373827 -0.475770 -0.796176
vn -0.461302 -0.496090 -0.735592
vn -0.448950 -0.673033 -0.587767
vn -0.297426 -0.732384 -0.612496
vn -0.475023 -0.722952 -0.501691
vn -0.373827 -0.475770 -0.796176
vn -0.297426 -0.732384 -0.612496
vn -0.374267 -0.847323 -0.376786
vn -0.649071 -0.712815 0.265711
vn -0.475023 -0.722952 -0.501691
vn -0.374267 -0.847323 -0.376786
vn -0.483874 -0.845574 0.225544
vn -0.806229 -0.532212 0.258351
vn -0.649071 -0.712815 0.265711
vn -0.483874 -0.845574 0.225544
vn -0.603421 -0.761772 0.235768
vn -0.547879 -0.657265 0.517524
vn -0.806229 -0.532212 0.258351
vn -0.603421 -0.761772 0.235768
vn -0.543629 -0.766101 0.342867
vn -0.075555 -0.709687 0.700454
vn -0.547879 -0.657265 0.517524
vn -0.543629 -0.766101 0.342867
vn -0.143169 -0.835356 0.530738
vn 0.282376 -0.659023 0.697103
vn -0.075555 -0.709687 0.700454
vn -0.143169 -0.835356 0.530738
vn 0.208953 -0.797451 0.566048
vn 0.256524 -0.588239 0.766923
vn 0.282376 -0.659023 0.697103
vn 0.208953 -0.797451 0.566048
vn 0.128408 -0.734850 0.665963
vn 0.208391 -0.779017 0.591359
vn 0.256524 -0.588239 0.766923
vn 0.128408 -0.734850 0.665963
vn 0.106182 -0.833803 0.541755
vn 0.460841 -0.879572 -0.118228
vn 0.208391 -0.779017 0.591359
vn 0.106182 -0.833803 0.541755
vn 0.307146 -0.946178 -0.102021
vn 0.472272 -0.837282 -0.275532
vn 0.460841 -0.879572 -0.118228
vn 0.307146 -0.946178 -0.102021
vn 0.316722 -0.932365 -0.174305
vn -0.280006 0.950079 0.137644
vn -0.084565 0.959876 0.267370
vn 0.203831 0.969859 -0.133513
vn -0.084565 0.959876 0.267370
vn 0.342001 0.805449 0.484032
vn 0.203831 0.969859 -0.133513
vn 0.342001 0.805449 0.484032
vn 0.433977 0.728039 0.530682
vn 0.203831 0.969859 -0.133513
vn 0.433977 0.728039 0.530682
vn 0.306046 0.764129 0.567841
vn 0.203831 0.969859 -0.133513
vn 0.306046 0.764129 0.567841
vn 0.321253 0.868840 0.376713
vn 0.203831 0.969859 -0.133513
vn 0.321253 0.868840 0.376713
vn 0.442447 0.869973 -0.217685
vn 0.203831 0.969859 -0.133513
vn 0.442447 0.869973 -0.217685
vn 0.568556 0.788264 -0.235340
vn 0.203831 0.969859 -0.133513
vn 0.568556 0.788264 -0.235340
vn 0.519920 0.784422 -0.338179
vn 0.203831 0.969859 -0.133513
vn 0.519920 0.784422 -0.338179
vn 0.072815 0.850274 -0.521279
vn 0.203831 0.969859 -0.133513
vn 0.072815 0.850274 -0.521279
vn -0.275153 0.780022 -0.562011
vn 0.203831 0.969859 -0.133513
vn -0.275153 0.780022 -0.562011
vn -0.091607 0.712555 -0.695610
vn 0.203831 0.969859 -0.133513
vn -0.091607 0.712555 -0.695610
vn -0.030648 0.814737 -0.579020
vn 0.203831 0.969859 -0.133513
vn -0.030648 0.814737 -0.579020
vn -0.245158 0.969312 -0.018196
vn 0.203831 0.969859 -0.133513
vn -0.245158 0.969312 -0.018196
vn -0.280006 0.950079 0.137644
vn 0.203831 0.969859 -0.133513
vn -0.281292 0.958038 0.055115
vn -0.366276 0.910010 0.194225
vn -0.280006 0.950079 0.137644
vn -0.245158 0.969312 -0.018196
vn -0.366276 0.910010 0.194225
vn -0.148313 0.941499 0.302626
vn -0.084565 0.959876 0.267370
vn -0.280006 0.950079 0.137644
vn -0.148313 0.941499 0.302626
vn 0.348466 0.819703 0.454596
vn 0.342001 0.805449 0.484032
vn -0.084565 0.959876 0.267370
vn 0.348466 0.819703 0.454596
vn 0.452142 0.736103 0.503706
vn 0.433977 0.728039 0.530682
vn 0.342001 0.805449 0.484032
vn 0.452142 0.736103 0.503706
vn 0.288455 0.721029 0.630009
vn 0.306046 0.764129 0.567841
vn 0.433977 0.728039 0.530682
vn 0.288455 0.721029 0.630009
vn 0.161520 0.887979 0.430587
vn 0.321253 0.868840 0.376713
vn 0.306046 0.764129 0.567841
vn 0.161520 0.887979 0.430587
vn 0.388557 0.887723 -0.246922
vn 0.442447 0.869973 -0.217685
vn 0.321253 0.868840 0.376713
vn 0.388557 0.887723 -0.246922
vn 0.585270 0.780875 -0.218386
vn 0.568556 0.788264 -0.235340
vn 0.442447 0.869973 -0.217685
vn 0.585270 0.780875 -0.218386
vn 0.444128 0.827960 -0.342392
vn 0.519920 0.784422 -0.338179
vn 0.568556 0.788264 -0.235340
vn 0.444128 0.827960 -0.342392
vn -0.009594 0.838747 -0.544436
vn 0.072815 0.850274 -0.521279
vn 0.519920 0.784422 -0.338179
vn -0.009594 0.838747 -0.544436
vn -0.285180 0.772785 -0.566989
vn -0.275153 0.780022 -0.562011
vn 0.072815 0.850274 -0.521279
vn -0.285180 0.772785 -0.566989
vn -0.116518 0.711424 -0.693037
vn -0.091607 0.712555 -0.695610
vn -0.275153 0.780022 -0.562011
vn -0.116518 0.711424 -0.693037
vn -0.011763 0.867031 -0.498115
vn -0.030648 0.814737 -0.579020
vn -0.091607 0.712555 -0.695610
vn -0.011763 0.867031 -0.498115
vn -0.281292 0.958038 0.055115
vn -0.245158 0.969312 -0.018196
vn -0.030648 0.814737 -0.579020
vn 0.316722 -0.932365 -0.174305
vn 0.307146 -0.946178 -0.102021
vn -0.275368 -0.960993 0.025795
vn 0.110636 -0.951039 -0.288590
vn 0.316722 -0.932365 -0.174305
vn -0.275368 -0.960993 0.025795
vn -0.342590 -0.771618 -0.535945
vn 0.110636 -0.951039 -0.288590
vn -0.275368 -0.960993 0.025795
vn -0.448950 -0.673033 -0.587767
vn -0.342590 -0.771618 -0.535945
vn -0.275368 -0.960993 0.025795
vn -0.297426 -0.732384 -0.612496
vn -0.448950 -0.673033 -0.587767
vn -0.275368 -0.960993 0.025795
vn -0.374267 -0.847323 -0.376786
vn -0.297426 -0.732384 -0.612496
vn -0.275368 -0.960993 0.025795
vn -0.483874 -0.845574 0.225544
vn -0.374267 -0.847323 -0.376786
vn -0.275368 -0.960993 0.025795
vn -0.603421 -0.761772 0.235768
vn -0.483874 -0.845574 0.225544
vn -0.275368 -0.960993 0.025795
vn -0.543629 -0.766101 0.342867
vn -0.603421 -0.761772 0.235768
vn -0.275368 -0.960993 0.025795
vn -0.143169 -0.835356 0.530738
vn -0.543629 -0.766101 0.342867
vn -0.275368 -0.960993 0.025795
vn 0.208953 -0.797451 0.566048
vn -0.143169 -0.835356 0.530738
vn -0.275368 -0.960993 0.025795
vn 0.128408 -0.734850 0.665963
vn 0.208953 -0.797451 0.566048
vn -0.275368 -0.960993 0.025795
vn 0.106182 -0.833803 0.541755
vn 0.128408 -0.734850 0.665963
vn -0.275368 -0.960993 0.025795
vn 0.307146 -0.946178 -0.102021
vn 0.106182 -0.833803 0.541755
vn -0.275368 -0.960993 0.025795
vn 0.513627 0.002804 -0.858009
vn -0.492249 -0.047856 -0.869138
vn -0.461323 0.021981 -0.886960
vn 0.413003 -0.008676 -0.910688
vn -0.492249 -0.047856 -0.869138
vn -0.978723 0.183689 0.091436
vn -0.986978 0.153397 -0.048417
vn -0.461323 0.021981 -0.886960
vn -0.978723 0.183689 0.091436
vn -0.401033 0.365850 0.839837
vn -0.489114 0.251672 0.835122
vn -0.986978 0.153397 -0.048417
vn -0.401033 0.365850 0.839837
vn 0.419115 0.396437 0.816811
vn 0.467506 0.222495 0.855531
vn -0.489114 0.251672 0.835122
vn 0.419115 0.396437 0.816811
vn 0.960723 0.265977 0.079174
vn 0.993808 0.087055 -0.069045
vn 0.467506 0.222495 0.855531
vn 0.960723 0.265977 0.079174
vn 0.513627 0.002804 -0.858009
vn 0.413003 -0.008676 -0.910688
vn 0.993808 0.087055 -0.069045
vn 0.470682 0.186240 -0.862423
vn -0.417015 0.222235 -0.881311
vn -0.607567 -0.013441 -0.794155
vn 0.540501 0.141081 -0.829431
vn -0.417015 0.222235 -0.881311
vn -0.996212 0.078687 -0.037004
vn -0.949784 -0.310597 -0.037952
vn -0.607567 -0.013441 -0.794155
vn -0.996212 0.078687 -0.037004
vn -0.420072 -0.207953 0.883343
vn -0.441333 -0.498464 0.746162
vn -0.949784 -0.310597 -0.037952
vn -0.420072 -0.207953 0.883343
vn 0.559610 -0.233515 0.795177
vn 0.491407 -0.358331 0.793800
vn -0.441333 -0.498464 0.746162
vn 0.559610 -0.233515 0.795177
vn 0.998030 0.000417 -0.062732
vn 0.995935 -0.048202 0.076097
vn 0.491407 -0.358331 0.793800
vn 0.998030 0.000417 -0.062732
vn 0.470682 0.186240 -0.862423
vn 0.540501 0.141081 -0.829431
vn 0.995935 -0.048202 0.076097
vn 0.540501 0.141081 -0.829431
vn -0.607567 -0.013441 -0.794155
vn -0.642930 -0.256035 -0.721864
vn 0.539257 -0.131534 -0.831806
vn -0.607567 -0.013441 -0.794155
vn -0.949784 -0.310597 -0.037952
vn -0.919602 -0.392727 -0.009915
vn -0.642930 -0.256035 -0.721864
vn -0.949784 -0.310597 -0.037952
vn -0.441333 -0.498464 0.746162
vn -0.474976 -0.504194 0.721239
vn -0.919602 -0.392727 -0.009915
vn -0.441333 -0.498464 0.746162
vn 0.491407 -0.358331 0.793800
vn 0.361827 -0.393813 0.844981
vn -0.474976 -0.504194 0.721239
vn 0.491407 -0.358331 0.793800
vn 0.995935 -0.048202 0.076097
vn 0.982494 -0.143123 0.119250
vn 0.361827 -0.393813 0.844981
vn 0.995935 -0.048202 0.076097
vn 0.540501 0.141081 -0.829431
vn 0.539257 -0.131534 -0.831806
vn 0.982494 -0.143123 0.119250
vn 0.413003 -0.008676 -0.910688
vn -0.461323 0.021981 -0.886960
vn -0.417015 0.222235 -0.881311
vn 0.470682 0.186240 -0.862423
vn -0.461323 0.021981 -0.886960
vn -0.986978 0.153397 -0.048417
vn -0.996212 0.078687 -0.037004
vn -0.417015 0.222235 -0.881311
vn -0.986978 0.153397 -0.048417
vn -0.489114 0.251672 0.835122
vn -0.420072 -0.207953 0.883343
vn -0.996212 0.078687 -0.037004
vn -0.489114 0.251672 0.835122
vn 0.467506 0.222495 0.855531
vn 0.559610 -0.233515 0.795177
vn -0.420072 -0.207953 0.883343
vn 0.467506 0.222495 0.855531
vn 0.993808 0.087055 -0.069045
vn 0.998030 0.000417 -0.062732
vn 0.559610 -0.233515 0.795177
vn 0.993808 0.087055 -0.069045
vn 0.413003 -0.008676 -0.910688
vn 0.470682 0.186240 -0.862423
vn 0.998030 0.000417 -0.062732
s off
g leavs:pCylinder47
usemtl initialShadingGroup
f 1/1/1 2/2/2 16/3/3 15/4/4
f 2/2/5 3/5/6 17/6/7 16/3/8
f 3/5/9 4/7/10 18/8/11 17/6/12
f 4/7/13 5/9/14 19/10/15 18/8/16
f 5/9/17 6/11/18 20/12/19 19/10/20
f 6/11/21 7/13/22 21/14/23 20/12/24
f 7/13/25 8/15/26 22/16/27 21/14/28
f 8/15/29 9/17/30 23/18/31 22/16/32
f 9/17/33 10/19/34 24/20/35 23/18/36
f 10/19/37 11/21/38 25/22/39 24/20/40
f 11/21/41 12/23/42 26/24/43 25/22/44
f 12/23/45 13/25/46 27/26/47 26/24/48
f 13/25/49 14/27/50 28/28/51 27/26/52
f 14/27/53 1/29/54 15/30/55 28/28/56
f 2/31/57 1/32/58 46/33/59 47/34/60
f 3/35/61 2/31/62 47/34/63 48/36/64
f 4/37/65 3/35/66 48/36/67 49/38/68
f 5/39/69 4/37/70 49/38/71 50/40/72
f 6/41/73 5/39/74 50/40/75 51/42/76
f 7/43/77 6/41/78 51/42/79 52/44/80
f 8/45/81 7/43/82 52/44/83 53/46/84
f 9/47/85 8/45/86 53/46/87 54/48/88
f 10/49/89 9/47/90 54/48/91 55/50/92
f 11/51/93 10/49/94 55/50/95 56/52/96
f 12/53/97 11/51/98 56/52/99 57/54/100
f 13/55/101 12/53/102 57/54/103 58/56/104
f 14/57/105 13/55/106 58/56/107 45/58/108
f 1/32/109 14/57/110 45/58/111 46/33/112
f 32/59/113 33/60/114 30/61/115
f 33/60/116 34/62/117 30/61/118
f 34/62/119 35/63/120 30/61/121
f 35/63/122 36/64/123 30/61/124
f 36/64/125 37/65/126 30/61/127
f 37/65/128 38/66/129 30/61/130
f 38/66/131 39/67/132 30/61/133
f 39/67/134 40/68/135 30/61/136
f 40/68/137 41/69/138 30/61/139
f 41/69/140 42/70/141 30/61/142
f 42/70/143 43/71/144 30/61/145
f 43/71/146 44/72/147 30/61/148
f 44/72/149 31/73/150 30/61/151
f 31/73/152 32/59/153 30/61/154
f 28/74/155 15/75/156 32/59/157 31/73/158
f 15/75/159 16/76/160 33/60/161 32/59/162
f 16/76/163 17/77/164 34/62/165 33/60/166
f 17/77/167 18/78/168 35/63/169 34/62/170
f 18/78/171 19/79/172 36/64/173 35/63/174
f 19/79/175 20/80/176 37/65/177 36/64/178
f 20/80/179 21/81/180 38/66/181 37/65/182
f 21/81/183 22/82/184 39/67/185 38/66/186
f 22/82/187 23/83/188 40/68/189 39/67/190
f 23/83/191 24/84/192 41/69/193 40/68/194
f 24/84/195 25/85/196 42/70/197 41/69/198
f 25/85/199 26/86/200 43/71/201 42/70/202
f 26/86/203 27/87/204 44/72/205 43/71/206
f 27/87/207 28/74/208 31/73/209 44/72/210
f 46/33/211 45/58/212 29/88/213
f 47/34/214 46/33/215 29/88/216
f 48/36/217 47/34/218 29/88/219
f 49/38/220 48/36/221 29/88/222
f 50/40/223 49/38/224 29/88/225
f 51/42/226 50/40/227 29/88/228
f 52/44/229 51/42/230 29/88/231
f 53/46/232 52/44/233 29/88/234
f 54/48/235 53/46/236 29/88/237
f 55/50/238 54/48/239 29/88/240
f 56/52/241 55/50/242 29/88/243
f 57/54/244 56/52/245 29/88/246
f 58/56/247 57/54/248 29/88/249
f 45/58/250 58/56/251 29/88/252
f 59/89/253 60/90/254 66/91/255 65/92/256
f 60/90/257 61/93/258 67/94/259 66/91/260
f 61/93/261 62/95/262 68/96/263 67/94/264
f 62/95/265 63/97/266 69/98/267 68/96/268
f 63/97/269 64/99/270 70/100/271 69/98/272
f 64/99/273 59/101/274 65/102/275 70/100/276
f 83/103/277 84/104/278 72/105/279 71/106/280
f 84/104/281 85/107/282 73/108/283 72/105/284
f 85/107/285 86/109/286 74/110/287 73/108/288
f 86/109/289 87/111/290 75/112/291 74/110/292
f 87/111/293 88/113/294 76/114/295 75/112/296
f 88/113/297 83/103/298 71/106/299 76/114/300
f 71/106/301 72/105/302 78/115/303 77/116/304
f 72/105/305 73/108/306 79/117/307 78/115/308
f 73/108/309 74/110/310 80/118/311 79/117/312
f 74/110/313 75/112/314 81/119/315 80/118/316
f 75/112/317 76/114/318 82/120/319 81/119/320
f 76/114/321 71/106/322 77/116/323 82/120/324
f 65/121/325 66/122/326 84/104/327 83/103/328
f 66/122/329 67/123/330 85/107/331 84/104/332
f 67/123/333 68/124/334 86/109/335 85/107/336
f 68/124/337 69/125/338 87/111/339 86/109/340
f 69/125/341 70/126/342 88/113/343 87/111/344
f 70/126/345 65/121/346 83/103/347 88/113/348
